HIERARCHY
ROOT hip
{
  OFFSET 0 0 0
  CHANNELS 6 Xposition Yposition Zposition Zrotation Yrotation Xrotation
  JOINT abdomen
  {
    OFFSET 0 20.6881 -0.73152
    CHANNELS 3 Zrotation Xrotation Yrotation
    JOINT chest
    {
      OFFSET 0 11.7043 -0.48768
      CHANNELS 3 Zrotation Xrotation Yrotation
      JOINT neck
      {
        OFFSET 0 22.1894 -2.19456
        CHANNELS 3 Zrotation Xrotation Yrotation
        JOINT head
        {
          OFFSET -0.24384 7.07133 1.2192
          CHANNELS 3 Zrotation Xrotation Yrotation
          JOINT leftEye
          {
            OFFSET 4.14528 8.04674 8.04672
            CHANNELS 3 Zrotation Xrotation Yrotation
            End Site
            {
              OFFSET 1 0 0
            }
          }
          JOINT rightEye
          {
            OFFSET -3.6576 8.04674 8.04672
            CHANNELS 3 Zrotation Xrotation Yrotation
            End Site
            {
              OFFSET 1 0 0
            }
          }
        }
      }
      JOINT rCollar
      {
        OFFSET -2.68224 19.2634 -4.8768
        CHANNELS 3 Zrotation Xrotation Yrotation
        JOINT rShldr
        {
          OFFSET -8.77824 -1.95073 1.46304
          CHANNELS 3 Zrotation Xrotation Yrotation
          JOINT rForeArm
          {
            OFFSET -28.1742 -1.7115 0.48768
            CHANNELS 3 Zrotation Xrotation Yrotation
            JOINT rHand
            {
              OFFSET -22.5879 0.773209 7.07136
              CHANNELS 3 Zrotation Xrotation Yrotation
              JOINT rThumb1
              {
                OFFSET -1.2192 -0.487915 3.41376
                CHANNELS 3 Zrotation Xrotation Yrotation
                JOINT rThumb2
                {
                  OFFSET -3.37035 -0.52449 3.41376
                  CHANNELS 3 Zrotation Xrotation Yrotation
                  End Site
                  {
                    OFFSET -1.78271 -1.18214 1.43049
                  }
                }
              }
              JOINT rIndex1
              {
                OFFSET -7.75947 0.938293 5.60832
                CHANNELS 3 Zrotation Xrotation Yrotation
                JOINT rIndex2
                {
                  OFFSET -2.54057 -0.884171 1.56538
                  CHANNELS 3 Zrotation Xrotation Yrotation
                  End Site
                  {
                    OFFSET -1.62519 -0.234802 1.16502
                  }
                }
              }
              JOINT rMid1
              {
                OFFSET -8.24714 1.18213 3.41376
                CHANNELS 3 Zrotation Xrotation Yrotation
                JOINT rMid2
                {
                  OFFSET -3.10165 -0.590103 1.0647
                  CHANNELS 3 Zrotation Xrotation Yrotation
                  End Site
                  {
                    OFFSET -2.48547 -0.328903 0.83742
                  }
                }
              }
              JOINT rRing1
              {
                OFFSET -8.82822 0.546677 1.51678
                CHANNELS 3 Zrotation Xrotation Yrotation
                JOINT rRing2
                {
                  OFFSET -2.60934 -0.819778 -0.0198488
                  CHANNELS 3 Zrotation Xrotation Yrotation
                  End Site
                  {
                    OFFSET -2.33842 -0.294052 0.168128
                  }
                }
              }
              JOINT rPinky1
              {
                OFFSET -8.27202 -0.0477905 -0.4584
                CHANNELS 3 Zrotation Xrotation Yrotation
                JOINT rPinky2
                {
                  OFFSET -1.82734 -0.647385 -0.700984
                  CHANNELS 3 Zrotation Xrotation Yrotation
                  End Site
                  {
                    OFFSET -1.69225 -0.51767 -0.607171
                  }
                }
              }
            }
          }
        }
      }
      JOINT lCollar
      {
        OFFSET 2.68224 19.2634 -4.8768
        CHANNELS 3 Zrotation Xrotation Yrotation
        JOINT lShldr
        {
          OFFSET 8.77824 -1.95073 1.46304
          CHANNELS 3 Zrotation Xrotation Yrotation
          JOINT lForeArm
          {
            OFFSET 28.1742 -1.7115 0.48768
            CHANNELS 3 Zrotation Xrotation Yrotation
            JOINT lHand
            {
              OFFSET 22.5879 0.773209 7.07136
              CHANNELS 3 Zrotation Xrotation Yrotation
              JOINT lThumb1
              {
                OFFSET 1.2192 -0.487915 3.41376
                CHANNELS 3 Zrotation Xrotation Yrotation
                JOINT lThumb2
                {
                  OFFSET 3.37035 -0.52449 3.41376
                  CHANNELS 3 Zrotation Xrotation Yrotation
                  End Site
                  {
                    OFFSET 1.78271 -1.18214 1.43049
                  }
                }
              }
              JOINT lIndex1
              {
                OFFSET 7.75947 0.938293 5.60832
                CHANNELS 3 Zrotation Xrotation Yrotation
                JOINT lIndex2
                {
                  OFFSET 2.54057 -0.884171 1.56538
                  CHANNELS 3 Zrotation Xrotation Yrotation
                  End Site
                  {
                    OFFSET 1.62519 -0.234802 1.16502
                  }
                }
              }
              JOINT lMid1
              {
                OFFSET 8.24714 1.18213 3.41376
                CHANNELS 3 Zrotation Xrotation Yrotation
                JOINT lMid2
                {
                  OFFSET 3.10165 -0.590103 1.0647
                  CHANNELS 3 Zrotation Xrotation Yrotation
                  End Site
                  {
                    OFFSET 2.48547 -0.328903 0.83742
                  }
                }
              }
              JOINT lRing1
              {
                OFFSET 8.82822 0.546677 1.51678
                CHANNELS 3 Zrotation Xrotation Yrotation
                JOINT lRing2
                {
                  OFFSET 2.60934 -0.819778 -0.0198488
                  CHANNELS 3 Zrotation Xrotation Yrotation
                  End Site
                  {
                    OFFSET 2.33842 -0.294052 0.168128
                  }
                }
              }
              JOINT lPinky1
              {
                OFFSET 8.27202 -0.0477905 -0.4584
                CHANNELS 3 Zrotation Xrotation Yrotation
                JOINT lPinky2
                {
                  OFFSET 1.82734 -0.647385 -0.700984
                  CHANNELS 3 Zrotation Xrotation Yrotation
                  End Site
                  {
                    OFFSET 1.69225 -0.51767 -0.607171
                  }
                }
              }
            }
          }
        }
      }
    }
  }
  JOINT rButtock
  {
    OFFSET -8.77824 4.35084 1.2192
    CHANNELS 3 Zrotation Xrotation Yrotation
    JOINT rThigh
    {
      OFFSET 0 -1.70687 -2.19456
      CHANNELS 3 Zrotation Xrotation Yrotation
      JOINT rShin
      {
        OFFSET 0 -36.8199 0.73152
        CHANNELS 3 Zrotation Xrotation Yrotation
        JOINT rFoot
        {
          OFFSET 0.73152 -45.1104 -5.12064
          CHANNELS 3 Zrotation Xrotation Yrotation
          End Site
          {
            OFFSET -1.1221 -3.69964 12.103
          }
        }
      }
    }
  }
  JOINT lButtock
  {
    OFFSET 8.77824 4.35084 1.2192
    CHANNELS 3 Zrotation Xrotation Yrotation
    JOINT lThigh
    {
      OFFSET 0 -1.70687 -2.19456
      CHANNELS 3 Zrotation Xrotation Yrotation
      JOINT lShin
      {
        OFFSET 0 -36.8199 0.73152
        CHANNELS 3 Zrotation Xrotation Yrotation
        JOINT lFoot
        {
          OFFSET -0.73152 -45.1104 -5.12064
          CHANNELS 3 Zrotation Xrotation Yrotation
          End Site
          {
            OFFSET 1.1221 -3.69964 12.103
          }
        }
      }
    }
  }
}
MOTION
Frames:	8
Frame Time:	0.00833333
5.28878 83.2423 46.376 -7.4672 12.6368 13.7904 1.60399 3.48494 0.790361 -2.30309 -12.9209 -0.0600619 5.1659 1.08863 4.44576 -3.00371 15.6143 8.10264 -0.0 0.0 0.0 -0.0 0.0 0.0 -2.92923e-13 -4.64827e-13 4.57596e-13 79.2812 50.1112 10.1467 -27.7365 -29.2443 66.0904 -0.0286162 4.63554 0.653179 5.37433e-09 3.90609e-08 -7.92473e-09 9.25423e-09 6.75391e-08 -1.37157e-08 5.37434e-09 3.90609e-08 -7.92474e-09 7.73091 5.47488 0.417314 5.37433e-09 3.90609e-08 -7.92473e-09 2.90554 0.965183 0.102902 5.37434e-09 3.90609e-08 -7.92473e-09 10.2786 0.731801 0.0259123 5.37433e-09 3.90609e-08 -7.92472e-09 2.22167 -0.733487 -0.20892 -2.93093e-13 -4.64835e-13 4.5741e-13 23.178 49.3859 -91.724 27.3963 -27.7649 -63.6911 4.08713 -48.3521 9.09135 1.75243e-09 -1.22033e-09 -5.58334e-10 3.03664e-09 -1.87592e-09 -9.01551e-10 1.75243e-09 -1.22034e-09 -5.58322e-10 -7.73091 5.47488 -0.417314 1.75243e-09 -1.22034e-09 -5.58339e-10 -2.90554 0.965183 -0.102902 1.75243e-09 -1.22034e-09 -5.58331e-10 -10.2786 0.731801 -0.0259123 1.75244e-09 -1.22032e-09 -5.58342e-10 -2.22167 -0.733487 0.20892 -2.03217e-16 0.0 -3.88251e-19 0.429172 -3.97487 34.5013 0.0729162 -3.25516 0.413936 -22.1673 -18.7744 -45.7698 2.03217e-16 0.0 3.88251e-19 -2.14782 -16.9208 -29.2905 0.00753375 12.0035 -0.142879 3.38542 -6.96525 28.9894
5.30209 83.2502 46.461 -7.4229 12.1535 13.5502 1.58208 3.61189 1.12297 -2.49129 -12.8432 0.0104956 5.04253 1.06023 4.30349 -2.93063 15.9032 7.85467 -0.0 0.0 0.0 -0.0 0.0 0.0 -3.03198e-13 -3.52468e-13 3.08088e-13 77.4557 52.8949 12.8024 -27.6841 -28.9983 65.6964 -0.0274773 4.54667 0.640589 4.60636e-09 3.02156e-08 -6.40533e-09 7.93349e-09 5.22389e-08 -1.1085e-08 4.60637e-09 3.02156e-08 -6.40533e-09 7.73091 5.47488 0.417314 4.60636e-09 3.02157e-08 -6.40533e-09 2.90554 0.965183 0.102902 4.60637e-09 3.02156e-08 -6.40533e-09 10.2786 0.731801 0.0259123 4.60636e-09 3.02156e-08 -6.40532e-09 2.22167 -0.733487 -0.20892 -3.03339e-13 -3.52473e-13 3.07921e-13 23.4026 49.4394 -88.88 27.4165 -27.8441 -63.8171 4.25858 -49.0536 9.32002 9.24052e-10 -1.66317e-09 -7.48109e-10 1.6191e-09 -2.71819e-09 -1.25768e-09 9.24046e-10 -1.66317e-09 -7.48098e-10 -7.73091 5.47488 -0.417314 9.24051e-10 -1.66317e-09 -7.48111e-10 -2.90554 0.965183 -0.102902 9.24047e-10 -1.66317e-09 -7.48106e-10 -10.2786 0.731801 -0.0259123 9.24059e-10 -1.66316e-09 -7.48118e-10 -2.22167 -0.733487 0.20892 -2.03217e-16 0.0 -3.88251e-19 0.262797 -3.68667 34.4759 0.0697932 -3.21166 0.397455 -21.4636 -18.4254 -45.1556 2.03217e-16 0.0 3.88251e-19 -2.21298 -16.4825 -29.0553 0.00704693 11.9917 -0.145066 3.45968 -7.13384 29.3033
5.31923 83.2443 46.5508 -7.4663 11.7407 13.2674 1.55283 3.71461 1.32307 -2.64906 -12.7737 0.0459982 4.95794 1.06186 4.19395 -2.83653 16.184 7.65881 -0.0 0.0 0.0 -0.0 0.0 0.0 -2.96424e-13 -2.07795e-13 1.35771e-13 75.3426 55.1464 15.2872 -27.6586 -28.8702 65.4661 -0.0272798 4.63817 0.653388 3.50543e-09 1.86859e-08 -4.38099e-09 6.03962e-09 3.22989e-08 -7.58049e-09 3.50543e-09 1.86859e-08 -4.381e-09 7.73091 5.47488 0.417314 3.50543e-09 1.86859e-08 -4.381e-09 2.90554 0.965183 0.102902 3.50543e-09 1.86859e-08 -4.381e-09 10.2786 0.731801 0.0259123 3.50542e-09 1.86859e-08 -4.38099e-09 2.22167 -0.733487 -0.20892 -2.96529e-13 -2.07797e-13 1.35619e-13 23.6508 49.4463 -86.5438 27.4351 -27.9181 -63.9342 4.42471 -49.7016 9.53844 -2.31077e-11 -2.02651e-09 -8.84798e-10 -4.77024e-12 -3.4376e-09 -1.52642e-09 -2.31137e-11 -2.02652e-09 -8.84788e-10 -7.73091 5.47488 -0.417314 -2.31087e-11 -2.02652e-09 -8.84797e-10 -2.90554 0.965183 -0.102902 -2.31116e-11 -2.02652e-09 -8.84796e-10 -10.2786 0.731801 -0.0259123 -2.31e-11 -2.02651e-09 -8.84809e-10 -2.22167 -0.733487 0.20892 -2.03217e-16 0.0 -3.88251e-19 0.104376 -3.44182 34.2024 0.0653786 -3.13522 0.375075 -20.4901 -17.8996 -44.3123 2.03217e-16 0.0 3.88251e-19 -2.25824 -16.0928 -28.8049 0.00672386 12.0367 -0.148072 3.53452 -7.32147 29.5516
5.34628 83.2266 46.6353 -7.5324 11.4021 12.9983 1.53628 3.74122 1.37536 -2.76428 -12.7011 0.0441149 4.91885 1.08688 4.12354 -2.74681 16.4232 7.52674 -0.0 0.0 0.0 -0.0 0.0 0.0 -2.81055e-13 -7.15617e-14 3.50855e-14 73.555 56.4759 17.0335 -27.6527 -28.8357 65.3937 -0.0278626 4.75942 0.670451 2.41657e-09 9.20212e-09 -2.59908e-09 4.16532e-09 1.58984e-08 -4.49577e-09 2.41657e-09 9.2021e-09 -2.59909e-09 7.73091 5.47488 0.417314 2.41657e-09 9.20212e-09 -2.59909e-09 2.90554 0.965183 0.102902 2.41658e-09 9.20209e-09 -2.59909e-09 10.2786 0.731801 0.0259123 2.41657e-09 9.20212e-09 -2.59909e-09 2.22167 -0.733487 -0.20892 -2.81126e-13 -7.1564e-14 3.49364e-14 23.7835 49.3824 -84.9401 27.4532 -27.9903 -64.049 4.52925 -50.0937 9.67431 -6.88771e-10 -2.3762e-09 -1.03335e-09 -1.14396e-09 -4.10972e-09 -1.80586e-09 -6.88777e-10 -2.3762e-09 -1.03334e-09 -7.73091 5.47488 -0.417314 -6.88772e-10 -2.3762e-09 -1.03335e-09 -2.90554 0.965183 -0.102902 -6.88775e-10 -2.3762e-09 -1.03335e-09 -10.2786 0.731801 -0.0259123 -6.88764e-10 -2.3762e-09 -1.03336e-09 -2.22167 -0.733487 0.20892 -2.03217e-16 0.0 -3.88251e-19 -0.0289598 -3.2911 33.6981 0.0604607 -3.03751 0.350847 -19.3967 -17.2788 -43.3416 2.03217e-16 0.0 3.88251e-19 -2.28269 -15.8014 -28.6143 0.00655662 12.1299 -0.151651 3.60771 -7.50121 29.7429
5.38105 83.2022 46.7096 -7.6298 11.1517 12.7624 1.54146 3.67809 1.25628 -2.82614 -12.6195 -0.000703802 4.92524 1.13686 4.09351 -2.66747 16.6229 7.46103 -0.0 0.0 0.0 -0.0 0.0 0.0 -2.43569e-13 5.9735e-14 4.20465e-14 72.5538 56.7042 17.5682 -27.6705 -28.9162 65.5221 -0.0296566 4.922 0.693452 1.26546e-09 2.60129e-09 -1.07085e-09 2.18187e-09 4.48641e-09 -1.85051e-09 1.26546e-09 2.60127e-09 -1.07086e-09 7.73091 5.47488 0.417314 1.26546e-09 2.60129e-09 -1.07086e-09 2.90554 0.965183 0.102902 1.26546e-09 2.60127e-09 -1.07086e-09 10.2786 0.731801 0.0259123 1.26546e-09 2.60129e-09 -1.07086e-09 2.22167 -0.733487 -0.20892 -2.43608e-13 5.97279e-14 4.18795e-14 23.8548 49.2767 -84.2203 27.4686 -28.0528 -64.1494 4.54833 -50.1619 9.69868 -9.31481e-10 -2.70202e-09 -1.17416e-09 -1.55569e-09 -4.70709e-09 -2.05741e-09 -9.31486e-10 -2.70202e-09 -1.17415e-09 -7.73091 5.47488 -0.417314 -9.31481e-10 -2.70203e-09 -1.17416e-09 -2.90554 0.965183 -0.102902 -9.31484e-10 -2.70203e-09 -1.17416e-09 -10.2786 0.731801 -0.0259123 -9.31474e-10 -2.70203e-09 -1.17417e-09 -2.22167 -0.733487 0.20892 -2.03217e-16 0.0 -3.88251e-19 -0.148909 -3.25425 32.8591 0.0545604 -2.91103 0.322279 -18.0879 -16.4849 -42.1565 2.03217e-16 0.0 3.88251e-19 -2.28701 -15.6238 -28.4945 0.00658344 12.2911 -0.156248 3.67944 -7.67851 29.871
5.41823 83.1744 46.77 -7.7732 10.9934 12.5791 1.55613 3.55281 0.980512 -2.84333 -12.5357 -0.0855059 4.97416 1.21423 4.10059 -2.58678 16.7974 7.456 -0.0 0.0 0.0 -0.0 0.0 0.0 -1.84716e-13 2.03041e-13 1.02675e-13 72.157 56.1144 17.0916 -27.7135 -29.115 65.84 -0.032919 5.18899 0.731266 -7.64857e-11 -3.49794e-09 5.39603e-10 -1.3123e-10 -6.05519e-09 9.36758e-10 -7.64848e-11 -3.49796e-09 5.39595e-10 7.73091 5.47488 0.417314 -7.64857e-11 -3.49795e-09 5.39592e-10 2.90554 0.965183 0.102902 -7.64808e-11 -3.49796e-09 5.39599e-10 10.2786 0.731801 0.0259123 -7.64898e-11 -3.49795e-09 5.396e-10 2.22167 -0.733487 -0.20892 -1.84719e-13 2.03026e-13 1.02477e-13 23.9031 49.1994 -84.2291 27.4818 -28.1067 -64.2365 4.51066 -50.0191 9.64943 -9.76289e-10 -2.97814e-09 -1.2849e-09 -1.62799e-09 -5.2053e-09 -2.25033e-09 -9.76292e-10 -2.97812e-09 -1.28488e-09 -7.73091 5.47488 -0.417314 -9.76289e-10 -2.97814e-09 -1.2849e-09 -2.90554 0.965183 -0.102902 -9.76291e-10 -2.97814e-09 -1.2849e-09 -10.2786 0.731801 -0.0259123 -9.76285e-10 -2.97814e-09 -1.28491e-09 -2.22167 -0.733487 0.20892 -2.03217e-16 0.0 -3.88251e-19 -0.261023 -3.30187 31.7116 0.0476088 -2.7531 0.288407 -16.5638 -15.4742 -40.7592 2.03217e-16 0.0 3.88251e-19 -2.26933 -15.5336 -28.4068 0.00682976 12.5174 -0.161834 3.74961 -7.86425 29.9342
5.45682 83.1445 46.8107 -7.9386 10.9118 12.4789 1.5678 3.37523 0.590106 -2.83304 -12.458 -0.199887 5.06775 1.31363 4.14446 -2.50373 16.9308 7.51091 -0.0 0.0 0.0 -0.0 0.0 0.0 -1.34356e-13 3.37762e-13 1.76423e-13 72.0409 55.0153 16.0165 -27.7687 -29.3787 66.2622 -0.0369347 5.48701 0.773526 -1.34557e-09 -9.19307e-09 2.00568e-09 -2.31901e-09 -1.58984e-08 3.47426e-09 -1.34557e-09 -9.19307e-09 2.00567e-09 7.73091 5.47488 0.417314 -1.34557e-09 -9.19307e-09 2.00567e-09 2.90554 0.965183 0.102902 -1.34556e-09 -9.19308e-09 2.00568e-09 10.2786 0.731801 0.0259123 -1.34557e-09 -9.19308e-09 2.00568e-09 2.22167 -0.733487 -0.20892 -1.3433e-13 3.37739e-13 1.76192e-13 23.7724 49.1746 -84.7422 27.4972 -28.1696 -64.3364 4.43571 -49.7348 9.55159 -9.72687e-10 -3.24687e-09 -1.42642e-09 -1.61611e-09 -5.6844e-09 -2.49451e-09 -9.72689e-10 -3.24685e-09 -1.4264e-09 -7.73091 5.47488 -0.417314 -9.72686e-10 -3.24688e-09 -1.42642e-09 -2.90554 0.965183 -0.102902 -9.72689e-10 -3.24687e-09 -1.42642e-09 -10.2786 0.731801 -0.0259123 -9.72685e-10 -3.24688e-09 -1.42644e-09 -2.22167 -0.733487 0.20892 -2.03217e-16 0.0 -3.88251e-19 -0.342208 -3.41362 30.4682 0.0409138 -2.58257 0.255577 -15.0893 -14.41 -39.3688 2.03217e-16 0.0 3.88251e-19 -2.22344 -15.5189 -28.3515 0.00725035 12.7666 -0.167445 3.81539 -8.03968 29.9472
5.49176 83.1151 46.8342 -8.127 10.89 12.4629 1.56403 3.15529 0.127089 -2.8126 -12.3945 -0.333473 5.2081 1.42971 4.22482 -2.41698 17.0074 7.62491 -0.0 0.0 0.0 -0.0 0.0 0.0 -1.22349e-13 4.43303e-13 2.22738e-13 71.8895 53.7151 14.7461 -27.8253 -29.6567 66.7013 -0.0406182 5.74267 0.80982 -2.27809e-09 -1.45816e-08 3.10079e-09 -3.9265e-09 -2.52152e-08 5.37022e-09 -2.27809e-09 -1.45816e-08 3.10078e-09 7.73091 5.47488 0.417314 -2.27809e-09 -1.45816e-08 3.10078e-09 2.90554 0.965183 0.102902 -2.27809e-09 -1.45816e-08 3.10079e-09 10.2786 0.731801 0.0259123 -2.2781e-09 -1.45816e-08 3.10079e-09 2.22167 -0.733487 -0.20892 -1.22313e-13 4.43277e-13 2.2249e-13 23.3121 49.2175 -85.5422 27.5189 -28.2586 -64.4757 4.34305 -49.3786 9.43031 -1.07017e-09 -3.55058e-09 -1.65958e-09 -1.77529e-09 -6.22443e-09 -2.8998e-09 -1.07017e-09 -3.55055e-09 -1.65956e-09 -7.73091 5.47488 -0.417314 -1.07017e-09 -3.55058e-09 -1.65958e-09 -2.90554 0.965183 -0.102902 -1.07017e-09 -3.55058e-09 -1.65958e-09 -10.2786 0.731801 -0.0259123 -1.07017e-09 -3.55058e-09 -1.6596e-09 -2.22167 -0.733487 0.20892 -2.03217e-16 0.0 -3.88251e-19 -0.367814 -3.56933 29.3415 0.0356691 -2.41832 0.230127 -13.8943 -13.4875 -38.1857 2.03217e-16 0.0 3.88251e-19 -2.14345 -15.5675 -28.3293 0.00776805 12.9963 -0.172108 3.87415 -8.18591 29.9246
